<svg id="Layer_1" data-name="Layer 1" xmlns="http://www.w3.org/2000/svg" viewBox="0 0 659.98 135.73"><defs><style>.cls-1{fill:#2e3192;}.cls-1,.cls-2{fill-rule:evenodd;}.cls-2,.cls-3{fill:#ed1c24;}.cls-3{font-size:70px;font-family:Square721BT-BoldExtended, Square721 BdEx BT;font-weight:700;}</style></defs><path class="cls-1" d="M70.15,240.12s.14-.06,0,0-.11,0,0,0Zm1.49,63.1H71v-.13c.33,0,.19,0,.34-.11.45-.16.39.4.39-1-.09-.07,0-.06-.16-.09v-.34h.69a1.26,1.26,0,0,0,0,.16V305c-.11,0-.16,0-.16.13v3.77h-.45V307a.2.2,0,0,0,.14-.2V305h0a.11.11,0,0,0,.11-.11v-1.06h0c.16,0,.14,0,.14-.37v-.06h0v0c0-.21-.26-.14-.42-.13Zm-1.49,0h-.31c-.27,0-.45,0-.57,0h-.06l-.07,0c-.14,0-.11.14-.09.39v.15l.09,0,0,0h0v1.06a.11.11,0,0,0,.11.11h0v1.83a.21.21,0,0,0,.13.2l0,.78v1.07h-.45v-3.56c0-.26,0-.32-.16-.34v-3.46a2.35,2.35,0,0,1,.38,0l0,1.23a.34.34,0,0,0,.08.09l0,0,0,0c.12.12.23.07.45.07,0,.19.06.13.29.13v.13ZM71,307h-.16v1.67c0,.17-.14.16.16.17V307Zm-.73,0h-.16v1.84h.16V307Zm-2.4-11.18h.66v0a.19.19,0,0,1,.18-.19h0a.18.18,0,0,1,.17.19v2.05h-1v.47c.82,0,1-.11,1,.21,0,.82-.08.15-.21.73-.33,0-.23-.07-.36.05h.44c.17-.37.24-.37.41,0,.61,0,.53-.12.53.51h.65a5.23,5.23,0,0,1,1.26,0c.11,0,0,0,.2.05H72v-3.86c0-.43-.08-.34.9-.34.09.17.17.35.25.52a2.38,2.38,0,0,1,.24.51H74c.08-.16.1-.28.32-.3.58-.06.44.07.45.47a2.85,2.85,0,0,0,0,.3v1.71c0,.7-.1,1,.17,1v-3.54c.06-.16.18-.1.57-.1h2.6c.17,0,.16,0,.17.21s0,.24,0,.35v2.78c0,.25,0,.35,0,.64h-1c-.46,0-.58-.07-.84.14a10.44,10.44,0,0,0-1.16.76h0l0,0v0l0,.17c-.08.26-.22.06-.44.14s-.09.35-.09.72v15.13h0v1.21h0v.25a.13.13,0,0,1,0,.08v6.94h0c.33,0,.33.6-.24.51v1.12c.16,0,.13,0,.24,0v3.39h-.53v-.31h-.08v.31h-.24v-.1H72.79v.1H68.16c0-.08,0-.19,0-.31h-1a.25.25,0,0,1-.14.28l0,0H60.87a8.48,8.48,0,0,1-1-.05c0-.18,0-.13.2-.13v-.26c-.16,0-.09,0-.2,0v-3.38c.11-.06.08,0,.24,0-.05-.12,0-.09,0-.26-.11.05-.16,0-.2-.13a.68.68,0,0,1,.36,0c0-.15.11-.35.28-.28s0,.27.33.28c0-.42.23-2.42.28-2.84.11-1,.14-1.88.27-2.83s.2-1.89.27-2.84c0-.23.06-.49.08-.73l.13-1.41c0-.18.07-.49.07-.69a1.68,1.68,0,0,1-.36-.21v-.26c.14-.08.3-.13.44-.21,0-.83.18-1.87.25-2.74l.27-2.71c0-.3.07-.62.09-.89.15-1.88.37-4.32.6-6.21.06-.52.07-1.21.18-1.7h-.65c0-.44,0-.63,0-1.15v-1.29c0-1.86-.28-1.54,1-1.54l.22-2.17a18.88,18.88,0,0,0,.19-2.15c-.21,0-.38,0-.65,0,0,.47-.06.38-.76.29l-.52-.06c-.28,0-.25,0-.27-.27s-.28-.39-.3-.83c0-.61.53-.7.15-1a1,1,0,0,1,0-1.52.82.82,0,0,1,1,0c.4.28.16.41.87.41,0-.31.07-.25-.09-.45l-.43-.54c-.21-.29-.42-.42-.25-.63.23,0,.43.41.58.59l.47.65c.12.27-.33.55.47.5.15,0,.09,0,.11-.15l.08-.78a1.53,1.53,0,0,1-.37-.21v-.26c.17-.12.39-.11.44-.35l.17-1.87c.05-.63.16-1.33.2-2,0-.4.33-2.79.27-3-.13-.34-.38-.2-.27-.71a1,1,0,0,1,.37,0s0-.18,0-.19v-.08l.14-1.33c0-.21,0-.43,0-.55a2.87,2.87,0,0,1,.17-.77,9.45,9.45,0,0,0,.26-2.07c.17-1.27.42-4.09.52-5.32,0-.2.06-.49.07-.69s0-.43.07-.66l.52-5.44c0-.07,0,0,0-.14.08-.83.33-3,.33-3.64h0l0,0v0c.09-.14.06-1.07.19-1.39a9.57,9.57,0,0,0,.17-1.35l.27-2.8c.17-1.25.25-3,.41-4.19l.62-6.47c0-.23,0-.13,0-.28l.27-2.8c0-.11,0-.2,0-.27a2.36,2.36,0,0,1,0-.34c0-.17.11-.49,0-.64a.73.73,0,0,1-.09-.27,2.3,2.3,0,0,1,0-.37c0-.62-.06-.68.13-.9a2.58,2.58,0,0,1,1.22.21,1.27,1.27,0,0,1-.06.41c0,.15,0,.26-.07.4s-.06.23-.09.37,0,.22-.19.23a6.16,6.16,0,0,1-.06.76l-.42,3.8a1.8,1.8,0,0,0-.05.32c-.06,1.16-.33,2.81-.36,3.87,0,.08-.24,1.92-.24,2.39l-.1,1c-.19,1.61-.31,3.34-.49,5a19.43,19.43,0,0,0-.16,2c0,.12,0,0,0,.14l-.13,1.4c0,.18,0,.2,0,.35l-.75,7.72c-.16,1.34-.25,2.89-.4,4.2l-.15,1.43c0,.24,0,.45-.06.7s0,.18,0,.47a26,26,0,0,0-.24,3c.09.48,0,.3,0,.77s-.09.06-.11.41l-.32,3.44a3.61,3.61,0,0,0,0,.62h0l0,0v-.05a1.75,1.75,0,0,0-.07.44c-.25,2.15-.37,4.57-.64,6.64l-.35,3.57c0,.83-.32,2.83-.32,3.51a4.76,4.76,0,0,1,.85,0v-1c0-.67-.09-.83.16-.86.64-.08.49-.07.49,1.54H67.3c0-.49-.09-.3-.15-1h-.09v.34h.08a.18.18,0,0,1-.18.18.17.17,0,0,1-.17-.18h.07V295a.17.17,0,0,1-.13-.17h0a.17.17,0,0,1,.16-.18h.23c0-.34,0-.81,0-1.47h.2c0-1.1,0-2.2,0-3.3,0-.3,0-.19-.07-.35s.08-2.52,0-2.81a.86.86,0,0,1,.73,0c0,.12,0,.09,0,.26h2.4a10.34,10.34,0,0,1,0-1.37V270c0-.51,0-.87,0-1.37s0-.88,0-1.36v-24c0-.78-.24-1.13.2-1.13s.25.13.25.49,0,.38,0,.68v24.46a13.3,13.3,0,0,1,0,2.19v16.94c.37,0,.86,0,1.22,0s.24.51.21.61c-.1.43,0,.29-1.43.29v5.65c0,.74.14,1.22-.08,1.66-.18,0-.17,0-.29,0v.05l0-.05h0a1.72,1.72,0,0,1-.07-.84c.06-.47,0-5.83,0-6.43-.12,0-.07,0-.16-.09v0l0,0h0v-.17c-.35,0-.35.07-.55.24a5.12,5.12,0,0,0-.43.36h.05l-.05,0v0c-.36.25-.67.57-1,.85-.12.09-.2.1-.22.27-.06,3.14-.08,4.33-.09,5.36h.28a.14.14,0,0,1,.15-.13h.75a.15.15,0,0,1,.14.15V295a.15.15,0,0,1-.14.15h-.81v.22h.07a.18.18,0,0,1-.17.18.18.18,0,0,1-.18-.18H68V295h-.17v.86ZM66,324.52v0a.12.12,0,0,1,.12-.12h.29v-5.29h0v0h0v0h0v0a.15.15,0,0,1-.1-.14v-1.46h0c0-4,0-15.84,0-15.86-.72,0-.46,0-.54-.24s-.3-.27-.44-.35c-.33-.21-.63-.42-1-.61l-.57,5.94c0,.53-.13,1-.16,1.63-.05.8-.25,2.32-.32,3.22s-.62,5.86-.62,6.54h.05l-.05,0v0l-.12,1.15c-.08,1-.27,2.37-.32,3.29l-.45,4.5h4.6v-.94h-.29a.12.12,0,0,1-.12-.13v-.77l-.2-.08h0a.14.14,0,0,1,.14-.14Zm5.55-9.33a.12.12,0,0,1,.12.12v.05a.12.12,0,0,1-.12.12h-.14v.12h.14a.12.12,0,0,1,.12.12v0a.12.12,0,0,1-.12.12h-.14V316h.14a.12.12,0,0,1,.12.12h2.22V315h0l0-4.7c0,.2.06.43-.13.43-.51,0-.44.07-.44-.43H71.61V314c0,.24,0,.18,0,.4a2.82,2.82,0,0,0,0,.41c-.12.06.08.05-.24.05v.33Zm-1.77,0v-.33c-.17,0-.14,0-.24-.05a3,3,0,0,0,0-.44c0-.15,0-.19,0-.37v-3.72H67.87c0,.31,0,.43-.12.43-.53,0-.45,0-.45-.43l0,5.86h2.2a.12.12,0,0,1,.11-.12h.17v-.12h-.17a.12.12,0,0,1-.11-.12v0a.12.12,0,0,1,.11-.12h.17v-.12h-.17a.12.12,0,0,1-.11-.12v-.05a.12.12,0,0,1,.11-.12Zm1.89,2.36v0a.12.12,0,0,1-.12.12h-.13v.12h.13a.12.12,0,0,1,.12.13v0a.12.12,0,0,1-.12.12h-.13v.12h.13a.12.12,0,0,1,.12.13v0a.12.12,0,0,1-.12.12h-.13v.77l.16,0c.06,0-.05.12-.11.12H69.66c-.06,0-.18-.11-.12-.12l.2,0v-.76h-.17a.12.12,0,0,1-.11-.12v0a.12.12,0,0,1,.11-.13h.17v-.12h-.17a.12.12,0,0,1-.11-.12v0a.12.12,0,0,1,.11-.13h.17v-.12h-.17a.12.12,0,0,1-.11-.12v0H67.34v1.28a.15.15,0,0,1-.1.14v2.52h6.69L73.88,319a.16.16,0,0,1-.12-.15v-1.28ZM61.89,330a1.63,1.63,0,0,0-.15-.4,1.3,1.3,0,0,0-.08-.17l-.09-.15-.1.23c-.26.54,0,.15,0,.62H62a.35.35,0,0,0-.08-.13v0l0,0Zm6.35-69.6h0l0-.05v.14l0,0h0v0ZM75.43,298s0,0,0,0h0Zm-7.64-42.43v0s0,0,0,0ZM67.54,267l0,0,0,0Zm-1.7,7.18h0Zm1,.69v0s0,0,0,0Zm-.53,6.41h0Zm.82-20.36h0s0,0,0,0Zm-2,18.78h0Zm.29-1.71h0Zm0-.68v0Zm-.65,3.08v0Zm.65-3h0Zm1.22-.47h0Zm-1.55,2.65h0Zm5.13-40.51h0Zm0,.3h0s0,0,0,0Zm0,.22v0s0,0,0,0Zm.28-1.2,0,0,0,0ZM70.19,240h0Zm-.29,2.74h0Zm.94.43v0s0,0,0,0Zm-1.38,3.42h0s0,0,0,0Zm.77-6.25h0s0,0,0,0Zm-6.06,47.14h0Zm-1.63,19.9v0Zm3.66,2.78v0s0,0,0,0Zm1.43.72h0Zm-4.4-23.22,0,0,0,0Zm2.4,0h0Zm4.15.13v0Zm-6.06.34h0Zm-1.83.34h0Zm7,.13h0ZM62.38,321.4h0Zm.89-32.77h0Zm.74,0h0Zm-2.61.22,0,0a0,0,0,0,0,0,0Zm7.2,0h0Zm-6.26,33h0Zm3.21-33h0Zm3,.09v0Zm-3.17,1.88h0Zm0,.09v0s0,0,0,0Zm-5.53,35.67h0s0,0,0,0Zm13.74-30h0Zm-4.59,2v0s0,0,0,0Zm1.75.68h0Zm-.9.09v0Zm0,.3v0Zm-4.07.72h0Zm11.06.09h0ZM61,324.05Zm2.72-36.27ZM74.17,328v2.35h.08V328Zm-8.74-.17c-.16,0-.26.43-.33.56l-.51,1.17c-.1.2-.16.39-.26.58h1.55v-2.31Zm7.4,2.1c-.16,0-.1,0-.08.12.07.41,0,.3,1.18.3V330Zm-2-.43c0,.19.07,0,0,.17a1.87,1.87,0,0,1,.38,0,2,2,0,0,1,.39.06.48.48,0,0,0,.12-.3V328h-.89v1.5Zm-1.51-.13c0,.5.33.3.94.3V328h-.94v1.37Zm2.81.3c.29,0,.1-.21.32-.21s.27,0,.33.21h1.14v-.64H72.46a4.74,4.74,0,0,1-.32.64Zm-4.11.68c.19,0,.15-.42.13-.52-.11-.49.51-.55.52,0a1.07,1.07,0,0,1,.37,0l-.79-1.39c-.3-.53-.05-.41-1.41-.41v2.27c.2,0,.15.08.33.08Zm5-2.22c-.11,0-.1,0-.15.14l-.25.5h1.26v-.64Zm-1,.64c.12,0,.19-.2.25-.29a4,4,0,0,1,.2-.35H72v.64ZM68.52,328a6.81,6.81,0,0,0,.57,1v-1Zm-6.79-.9a3.94,3.94,0,0,0-.06,1c0,.09.11.26.15.36a3.54,3.54,0,0,1,.16.34c.11.27.21.48.32.74.31.74.23.64.57.64v-3Zm4,0c-.15,0-.27.4-.33.52h.45v-.52Zm-5.25,3c0-.22.1-.22.13-.37s-.19-.27-.08-.68l.15-1.3c0-.35.14-.69-.28-.69l.08,3Zm5.94-3v.35h.12v-.35Zm-2.81,3c.15,0,.17-.21.23-.36.19-.42,1.14-2.48,1.15-2.68H63.44v3ZM70.43,315v.18h.25v-.3h-.13c-.09,0-.12,0-.12.12Zm.41-2.86v2.05H71v-2.05c-.11.05,0,.05-.16,0Zm-.69.21.12-.08v-.13h-.16v2.05h.16v-1.79c0-.13.07-.09-.12-.05Zm3-3.85.07-.09c.28-.31.47,0,.54.09v-2.35h-.61v2.35Zm-5.74,0,0,0,0,0c.22-.28.34-.12.55,0v-2.31h-.61v2.35Zm2-5.77h0s0,0,0,0Zm1.22-.82c.18,0,0-.07.17,0v-.38h-.41v.38Zm4.27-.64v.13H75v-.13Zm0-.85v.68H75v-.68c0-.13,0-.08-.08-.13s-.09,0-.09.13Zm-1.62-.09v.77h1.22v-.77Zm-.57,0v.77h.2v-.77Zm-3.74,0V301h.4v-.73Zm-.61,0V301h.2v-.73Zm2,0V301h0v-.69Zm1.67.3c0-.1,0-.13.12-.13h.12v-.17h-.61v.77H72v-.47Zm3.37.09.55-.33.06-.06h-.61v.39Zm-8.46,0a2.81,2.81,0,0,1,.21-.43h-.41V301h.2v-.3Zm-.61-.17,0-.26c-.18.05-.12.09-.12.77h.16v-.51Zm-1.14-.26.07.06.23.15a1,1,0,0,0,.32.18v-.39Zm-.08-1v.6h.53a1.64,1.64,0,0,0,0-.6Zm10.25.47c0,.1,0,.13.12.13H78v-1.54H75.31v1.41ZM71,299.71v.13H71v-.13Zm-.89,0v.13h.08v-.13Zm5.24-3v1.46H78v-1.46Zm-9,1.2c0,.09,0,.2,0,.47h1v-.47Zm-2.84,2.06c0-.66.28-2.58.28-3.26h-.61v3.26Zm2.11-2.83c0-.19,0-.2,0-.43H64.7a15.24,15.24,0,0,0-.08,2.57c0-.09,0-.24.15-.31s0,0,.15,0h.63v-1.37h-.2c-.15,0-.39-.43.2-.43Zm-2.72-5.17V292a1,1,0,0,1,.44,0c-.07-.22-.21-.07-.44-.12Zm1.1-2.36v.15a1.44,1.44,0,0,0-.07.22l-.15,1.52c.21,0,.33,0,.45,0,0-.19.17-1.81.2-1.88a4.17,4.17,0,0,0-.44-.05ZM68.52,288h0Zm-.57.43c.28-.2.43-.37.65-.55a1.9,1.9,0,0,0,.37-.31H68v.86Zm2,33.32v.73h.45v-.73Zm-1.58,0v.73h1.18v-.73Zm2.28,0v.73h3.17v-.73Zm-3.44,0v.73H68v-.73Zm3.19-3.16v.55a.13.13,0,0,0,.12.13h0a.13.13,0,0,0,.13-.13v-.55Zm-4.07-21.7a.09.09,0,0,0-.08.08h0a.08.08,0,0,0,.08.08h.86a.07.07,0,0,0,.08-.08h0a.08.08,0,0,0-.08-.08Zm.33,6.59v1l.49-.52-.49-.53Zm1.79,0L68,304l.5.52v-1Zm-1.35-.16.49.52.5-.52Zm0,1.38h1l-.5-.53-.49.53Zm-.44-3v1l.49-.52-.49-.52Zm1.79,0-.5.52.5.52v-1Zm-1.35-.17.49.52.5-.52Zm0,1.38h1l-.5-.52-.49.52Zm5.5.58v1l.5-.52-.5-.53Zm1.79,0-.5.53.5.52v-1Zm-1.35-.16.49.52.5-.52Zm0,1.38h1l-.5-.53-.49.53Zm-.44-3v1l.5-.52-.5-.52Zm1.79,0-.5.52.5.52v-1Zm-1.35-.17.49.52.5-.52Zm0,1.38h1l-.5-.52Z" transform="translate(-8.22 -236.83)"/><path class="cls-1" d="M125.67,351.23A63.63,63.63,0,0,1,18.23,330.37c.38.79.78,1.58,1.19,2.36a65.08,65.08,0,0,0,15.34,20.64c26,23.5,65.43,21.69,88-4s19.74-65.63-6.3-89.12a64.36,64.36,0,0,0-18.7-11.8,63.63,63.63,0,0,1,27.92,102.82Z" transform="translate(-8.22 -236.83)"/><path class="cls-2" d="M25,262.17a66.91,66.91,0,0,1,42.3-22.26L66.72,243a63.31,63.31,0,0,0-38.64,21.2c-23.68,27.26-20.51,69.36,7.08,94A67.8,67.8,0,0,0,55,370.56,67.17,67.17,0,0,1,25,262.17Zm46.89-22.65a67.17,67.17,0,0,1,66.62,44.15c-.4-.84-.83-1.67-1.27-2.49a68.91,68.91,0,0,0-16.29-21.72,66.7,66.7,0,0,0-49-17.06Z" transform="translate(-8.22 -236.83)"/><path class="cls-1" d="M49.81,324.45l0,0,0,0s0,0-.07,0,0-.24,0-.38h.05v.15c0,.07,0,0,0,.1v0h0s0,0,0,0a.2.2,0,0,0,0,.05Zm.9-2.8h3.85v3.9H50.71v-3.9Zm.25.25v3.39h1.49V321.9Zm1.86,0v3.39h1.49V321.9Zm.92-7.84a.94.94,0,1,1-.89.94.92.92,0,0,1,.89-.94Zm-2-.08a.79.79,0,0,1,0,1.58.79.79,0,0,1,0-1.58Zm-1.82,8.24,0,.14h-.07v.11h.09a.14.14,0,0,0,0,.07.22.22,0,0,1,0,.08v.85c0,.06,0,0,0,.08a.86.86,0,0,1-.19.19c0-.7,0-1.37,0-2.07.06,0,0,0,.13,0v.05c-.14,0-.09.06-.08.27s0,.19.11.19Zm-.1-.94h.13v.35h-.13v-.35Zm0-.73h.06c0,.15,0,.15-.12.15v.41c0,.05,0,0,.09,0v.06c-.08,0-.07,0-.13,0v-1s0-.06.05-.08l-.12-.14,1.63-1.56H49.89l0,1.05s-.12.12-.19.19c0-.15,0-.25,0-.4v-.82l.17,0h-.21v-.35h5.72v-.32c0-.15,0-.26,0-.42s0-.48,0-.82h-5.7v-.35h5.71v0h0c0-.08,0-.1,0-.18a1.77,1.77,0,0,1,0-.23c0-.28,0-.53,0-.82v-.84c0-.14,0-.26,0-.41v-1c0-.08,0-.12,0-.21H55s0-.06-.07-.1-.14-.25-.23-.26c-.26,0-.27.17-.26.38h-.53c0-.08,0-.13,0-.22v-.71l-.31,0h-.33a3.52,3.52,0,0,0-.3-.45l-.07-.11-.22-.34c-.17-.27-.12-.14-.12-.63a5.23,5.23,0,0,1,0-.56.39.39,0,0,0,0-.16.75.75,0,0,1-.06-.32l-.18-1.31c0-.26-.12-.5-.19-.75a.47.47,0,0,1,0-.17.68.68,0,0,1,.09.25l.49-.15.18,0c0-.1-.14-.5-.16-.62l-.17.05-.5.15c0,.09,0,.08,0,.1a2.13,2.13,0,0,0-.11-.33,8,8,0,0,0-.39-1c-.13-.27-.15-.31-.31-.59a6.48,6.48,0,0,0-.33-.57l-.09-.13-.27-.4a6.38,6.38,0,0,0-.49-.62,1.47,1.47,0,0,0-.1-.13l0-.06-.06-.06c-.07-.09-.53-.54-.55-.57s.1.1.17.11a2.32,2.32,0,0,1,.21-.29,1.47,1.47,0,0,0,.1-.13l.06-.08.05-.07c-.12-.08-.34-.3-.47-.39-.08.13-.32.41-.42.56-.06,0-.52-.43-.62-.49l-.22-.16a7.32,7.32,0,0,0-.8-.52l-.6-.33c-.35-.16-.69-.31-1-.44l-.14-.05a1.9,1.9,0,0,0-.43-.13,1.13,1.13,0,0,1,0-.18l.08-.34a.69.69,0,0,0,0-.08V299s0,0-.06,0l-.51-.14a.75.75,0,0,0-.05.16,1,1,0,0,1,0,.18c0,.06,0,.11,0,.18a1.09,1.09,0,0,0,0,.17l-.33-.07-.69-.1c-.2,0-.56-.05-.76-.05h-.18l-.18,0c-.09,0-.11,0-.16,0h-.59c0,.07-.51.59-.62.72l-.39.42c.06.08.26.27.34.35a4.26,4.26,0,0,0,.42.43l2.68,2.66c.06.06.12.1.18.17s.41.39.6.6l0,0,0,0h0l.78.76h0l.11.11.08.08.18.18c.21.18.41.4.61.6l.69.68.09.09L49,308.71c.19.2.4.39.6.59l.19.2h0l.22.21.08.09.43.41h0l0,0,.05,0,.87.86a1.72,1.72,0,0,1,0,.34H50.7v.92h-.56l-.18,0a.29.29,0,0,0,0-.26.18.18,0,0,0-.08-.09c-.18-.1-.21.07-.47.32-.08.08-.31-.05-.32.17a3.07,3.07,0,0,0,0,.53c0,.1.16.09.23.08,0,1,0,1.92,0,2.88v1.46l0,.54a0,0,0,0,1,0,0c0,.16,0,.91,0,1.16v1.09c0,.13,0,.22,0,.35v1.1c0,.13,0,.21,0,.35l0,2.54c-.19,0-.15,0-.17-.16v-.35h0c0-.05,0-.12,0-.15s0-.1,0-.15a.61.61,0,0,0-.3,0s0,.08,0,.14a1,1,0,0,1,0,.17s0,0-.06,0,0,.07,0,.12v.36s0,0-.06,0v.22h.5v.13h0v.29s0,0,0,0,.06.1.15.1h0a1.79,1.79,0,0,0-.33,0h-.17c-.06,0-.13,0-.15,0v.16c0,.06.07,0,.14,0h.33c0,.31,0,.58,0,.9h.72v-.2h2v1c0,.07,0,.08,0,.14h-.2v.64H52a4.09,4.09,0,0,0,0,.61c0,.1.11.2.14.29s0,.53,0,.64l-.17.14-.1.07c-.16.14-.1.13-.1.38a1.18,1.18,0,0,0,0,.33s1.5,0,1.65,0v-.64a1.39,1.39,0,0,1-.19-.15l-.2-.15c0-.11,0-.52,0-.62s.13-.11.13-.48v-.43h.24c0-.73,0-.64-.21-.64v-1.17l1.67,0v.19h.71V326c0-.2,0-.35,0-.56-.09,0,0,0-.17,0v-.21c0-.12,0-.07.06-.14a.47.47,0,0,0,.06-.34,4.28,4.28,0,0,1,0-.62c0-.1,0-.13,0-.19s-.09-.07-.09-.32l0-2.08c0-.29,0-.54,0-.84,0-.13,0-.35,0-.59l-.08.09-1.81-1.74H51.61l-1.7,1.64v.37h-.08v.1Zm-.3-3.15h-.07v-.08c0-.07.11-.09.14,0a.07.07,0,0,1-.06.09Zm5.65,0c-.09,0-.08-.1,0-.15s0,.1,0,.15Zm-5.3-.05s0,0,0,0v.7h-.18v-1.44c.14,0,.11,0,.14,0s.06.1.06.25,0,.24,0,.39c-.08,0,0,0,0,0Zm-.14-3s.09-.08.12-.1l.12-.08.24-.16a3.27,3.27,0,0,1,.5-.31c.1,0,.65,0,.7,0l.08,0,.09,0c.14,0,2.14,0,2.28,0a.89.89,0,0,1,.37,0l.49.32.25.15v-.33c0-.11,0-.19,0-.3l-.32,0H50.33l-.66,0c0,.1,0,.19,0,.31v.95c0,.22,0,.4,0,.62v.63h.06l0-1.76Zm0-2.07a.09.09,0,0,1,0,.16c-.06-.06-.07-.11,0-.16Zm1.34-.31h.46v.16h-.45c0-.07,0-.08,0-.16Zm2-.16a.08.08,0,0,1,.15,0,.08.08,0,1,1-.15,0Zm-1-5v0Zm0-.06ZM49.29,302Zm-7.5-1.38c0-.22.3-.16.44-.16h.3a1.22,1.22,0,0,1,.27,0l.55,0,.28,0c.18,0,.73.13.87.17l.12,0,.23.06c.16.05.31.09.46.15l.84.35.4.21a6.48,6.48,0,0,1,.57.33c.18.13.37.24.54.37l.5.41c.13.11.35.32.47.45l.61.67h0l.16.19c.17.23.43.59.56.82s.15.26.22.39.15.26.22.4l.28.63c0,.07.05.14.08.22a10.16,10.16,0,0,1,.36,1.19c0,.17.08.34.11.51s.09.54.11.81c0,.08,0,.22,0,.29a2.91,2.91,0,0,0,0,.3v.3a.13.13,0,0,1-.23.11.6.6,0,0,1-.08-.08c-.06,0-.1-.1-.15-.14l-.07-.07-.59-.58-.07-.08-.08-.07-1-.95a2.28,2.28,0,0,1-.22-.22l-.52-.51-.07-.06-.37-.38-.07-.06-.08-.08-.08-.07-1-1s-.1-.1-.15-.15l-.15-.15-.52-.5-.66-.66c-.19-.21-.41-.39-.6-.59a.23.23,0,0,0-.07-.07l-2.74-2.7a.26.26,0,0,1-.12-.18Zm12.07,17.79h1.52c0,.24,0,.46,0,.58s0,.54,0,.91Z" transform="translate(-8.22 -236.83)"/><path class="cls-1" d="M33.26,330.28h84.8v4.65H95.47v7.48A14.34,14.34,0,0,1,90,343.64a5,5,0,0,1-1.67-.14c-.25-.08-.62-.22-.72-.5a3.55,3.55,0,0,1,.19-1.47l.56-2.17-1.65,1.43,0,0v-5.89H80.06v8.62l-1.16.09a4.94,4.94,0,0,1-1.67-.14c-1-.32-.8-1-.54-1.94l.64-2.18-1.71,1.4a10.65,10.65,0,0,1-2.17,1.51,12.33,12.33,0,0,1-2.19.83v-8.19H64.65v5.75l-.11.08c-.25.19-.49.41-.75.61a9.07,9.07,0,0,1-1.42.88,14,14,0,0,1-5.67,1.39,6.17,6.17,0,0,1-.86,0v-8.71H33.26Z" transform="translate(-8.22 -236.83)"/><path class="cls-1" d="M32.25,341.75c-.54.92-.65,1.53-.46,1.89a1.35,1.35,0,0,0,.84.55,5.55,5.55,0,0,0,1.9.17c3.82-.2,7.65-2.65,8.2-3-.51,1.17-.29,2.45,1,2.84a5.58,5.58,0,0,0,1.9.17c5.45-.29,7.7-2.68,8.2-3-.44,1.23-.51,2.38,1,2.84a5.58,5.58,0,0,0,1.9.17c5.46-.29,7.66-2.6,8.21-3a1.85,1.85,0,0,0,1,2.84,5.6,5.6,0,0,0,1.9.17c5.46-.29,7.58-2.5,8.21-3-.36,1.21-.54,2.37,1,2.84a5.52,5.52,0,0,0,1.89.17c5.46-.29,7.43-2.34,8.21-3-.31,1.21-.61,2.35,1,2.84a5.58,5.58,0,0,0,1.9.17c5.45-.29,7.44-2.34,8.2-3-.3,1.19-.59,2.36,1,2.84a5.58,5.58,0,0,0,1.9.17c5.45-.29,7.62-2.59,8.21-3-.4,1.15-.73,2.32,1,2.84a5.58,5.58,0,0,0,1.9.17c5-.26,8-1.95,8.83-2.61-1.32,2.26-5.57,4-8.76,4.14a7.06,7.06,0,0,1-2.37-.22,2.77,2.77,0,0,1-1.71-1.28,2.48,2.48,0,0,1-.24-.71,14.66,14.66,0,0,1-6.78,2.21,7,7,0,0,1-2.37-.22,2.74,2.74,0,0,1-1.71-1.28,2.21,2.21,0,0,1-.24-.71,14.66,14.66,0,0,1-6.78,2.21,7,7,0,0,1-2.37-.22A2.72,2.72,0,0,1,86,344.39a2.21,2.21,0,0,1-.24-.71A14.7,14.7,0,0,1,79,345.89a7,7,0,0,1-2.36-.22,2.53,2.53,0,0,1-2-2,14.7,14.7,0,0,1-6.79,2.21,7.06,7.06,0,0,1-2.37-.22,2.77,2.77,0,0,1-1.71-1.28,2.83,2.83,0,0,1-.24-.71,14.66,14.66,0,0,1-6.78,2.21,7,7,0,0,1-2.37-.22,2.77,2.77,0,0,1-1.71-1.28,2.21,2.21,0,0,1-.24-.71,14.66,14.66,0,0,1-6.78,2.21,7,7,0,0,1-2.37-.22,2.72,2.72,0,0,1-1.71-1.28,2.21,2.21,0,0,1-.24-.71,14.7,14.7,0,0,1-6.79,2.21,7,7,0,0,1-2.36-.22C29.43,344.82,30.36,342.13,32.25,341.75Z" transform="translate(-8.22 -236.83)"/><text class="cls-3" transform="translate(158.6 104.52)">NORTECH</text><path class="cls-1" d="M99.11,323.94h.16v4.27h-.16v-4.27Zm-7.19-74.77v1.22H92v1l.11-.24h.18l.1.24v-1h0v1.43h-.3V252h-.32v.14c-.3,0-.2,0-.2,1.37h-.48v5h.32c0,.18,0,.06-.06.1v.31c.09,0,0,0,.13.07a6,6,0,0,0,0,.85c0,.17.09.08.09.21v16.37c-1.26,0-1-.22-1,1.1v36.67c0,.45,0,.76,0,1.2H90v-4c0-.08,0-.1-.1-.1H85.33v4.07h-.19v-4.58c0-.11-.28-.34-.35-.42l-1.14-1.2a20.71,20.71,0,0,0-1.54-1.56H77.53v9.74c0,.08,0,.1.1.1H89.75c0,.15,0,.31.19.31s.23-.09.23-.31c.28,0,.16.18,0,.29l-.14.12a1.06,1.06,0,0,0-.15.15l-1.45,1.38c-.32.35-.44.25-.87.25v2.22a.19.19,0,0,0-.09,0v-3.76h-.1V318H86.27v.1H83.54c-.14,0-.26,0-.26.14v3.93c-.25,0-.16.18-.16.54h3.15v7.73c0,.08,0,.1.1.1h.94c.1,0,.09,0,.1-.14h.16c0-.13,0-.09.13-.17v.45h.68V330h-.13v-.41c.19,0,.19-.05.24-.19v-.05a13.7,13.7,0,0,0,0-1.94v-2.53h4.61v.41c0,.18-.06.19-.06.37v.52c0,.08.08.22.09.34h.3a.54.54,0,0,1,0-.15c0-.12,0,.07,0,0l0-.07a2.13,2.13,0,0,0,0-.67,2.36,2.36,0,0,1-.06-.71h4.61c0,.33,0,4.14,0,4.37s0,0,0,.1,0,.24.25.24V330h-.13v.69H99v-.45c.11.08.11,0,.13.17h.16c0,.1,0,.14.1.14h1v-7.72c0-.08,0-.11.09-.11h3.06c0-.36.09-.54-.17-.54V318.2c0-.15-.11-.14-.25-.14h-2.73V318H99.27c0,.3-.1-.27-.1.92,0,.54,0,2.37,0,2.81,0,.16,0,.1-.1.16v-2.22c-.42,0-.55.1-.87-.25l-.29-.27-1.44-1.38c-.13-.11-.24-.26,0-.29,0,.43.42.36.42.14v-.14h5.85c.07,0,.09,0,.09-.1v-1.88c0-.14-.16-.1-.26-.1v-4.07H96.67v4.07h-.59c0-.42,0-.71,0-1.13V276.39H95V260a1.31,1.31,0,0,0,.07-.48V259c.12,0,0,0,.16-.07v-.31c-.1,0,0,.08-.06-.1h.32v-5H95v-1.27c0-.11-.05-.1-.16-.1,0-.21-.19-.14-.36-.14v-.13h-.29v-1.43h0v1l.1-.24h.18l.11.24v-1h.09v-1.22h-.09v-1.06l-.11.24h-.18l-.1-.24v1.06h0V248h-.1v1.2h-.05v-1.06l-.1.24h-.18l-.11-.24v1.06H93v-1.06l-.11.24H92.7l-.1-.24v1.06h0V248h-.1v1.2h0v-1.06l-.1.24h-.18l-.11-.24v1.06Zm-4.51,74.77h.16v4.27h-.16v-4.27Zm9.19-.62h1.53v.34a8.36,8.36,0,0,1-1.33,0s0,0-.07,0a.57.57,0,0,0-.13,0v-.28Zm-8,.34v-.34h1.52v.28c-.26,0-.09,0-.32.07Zm14.55-1.47h.39v.41h-.39v-.41Zm-19.91,0h.39v.41h-.39v-.41Zm17.22-1.91h2.79v1.85h-2.79v-1.85Zm-3.61,1.16c0-.08,0-.1.1-.1h1.3v.79H96.8v-.69Zm-.59.21c.1.07.07,0,.07.2v.28h-.07v-.48Zm-2.69-.31h.84v.79h-.84v-.79Zm-1.2,0h.84v.79h-.84v-.79Zm-1.86.31v.48H90.4a2.62,2.62,0,0,1,0-.28c0-.18,0-.13.06-.2Zm-2-.31h1.37v.79H88.48v-.79Zm-5-1.06h2.79v1.85H83.48v-1.85Zm11.89,1.85h-.49v-.79h.81v.79H95.5v-.76h-.13v.76Zm-4.19,0H91c0-1-.19-.79.82-.79v.79h-.49v-.76h-.13v.76Zm-7.7-3.87h2.79v1.82H83.48v-1.82ZM100.41,320v-1.71h2.79v1.82h-2.7c-.07,0-.09,0-.09-.11Zm-4.07-.37h0Zm-6,0h0Zm6-1.23a4.84,4.84,0,0,1,.5.46L97,319l.66.64H96.47v-.24h-.09c0-.39,0-.67,0-1Zm-.84,1.19H94.3l.93-.9c.12-.1.18-.25.33-.29,0,.08,0,.23,0,.3l0,.05v0a3.59,3.59,0,0,0,0,.82Zm-5.2-.17h-.1v.24H89l1-.95a1.37,1.37,0,0,1,.18-.16c.08-.06.1-.1.17-.15,0,.35,0,.63,0,1Zm.81-1c.18.09.18.15.32.28l.95.91h-1.2v-.75c0-.18-.07.12-.07-.44Zm2.41,1.16v-2h2v.13a12.24,12.24,0,0,0-1,.95l-1,1Zm-2.41-2h2v2c-.22-.15-1-1-1.27-1.2a8.3,8.3,0,0,0-.78-.72v-.13Zm5.56,0h.1v.1h-.1v-.1Zm-6.76,0H90v.1h-.1v-.1Zm6.34-2h.09c.13,0,0,0,.1,0V316h-.19v-.54Zm-6,0a.73.73,0,0,0,.23,0V316H90.2v-.58Zm.36.34h0V316h0v-.21Zm9.2-2.32h2.66v1.88H99.76v-1.88Zm-2.9,0H99.4v1.88H96.86v-1.88Zm-8.61,0h1.53v1.88H88.25v-1.88Zm-2.72,0h2.53v1.88H85.53v-1.88Zm14.22-2a26.49,26.49,0,0,1,2.68,0,12.14,12.14,0,0,1,0,1.81c-.18,0-2.55,0-2.7,0a13.57,13.57,0,0,1,0-1.8Zm-2.89,0H99.4v1.77H96.86V311.5Zm-8.61,0h1.53v1.77H88.25V311.5Zm-2.72,0h2.53v1.77H85.53V311.5Zm8-1.71,0,0,0,.06c.28.41,2,3.08,2,3.19H93.52v-3.28Zm-.36,0v3.28H91.08a9,9,0,0,1,.51-.84c.18-.28.33-.54.52-.81l.52-.82.13-.21L93,310l.07-.11v0l.06-.07Zm.49-.28H95.6v3c-.11-.08-1.89-2.91-1.95-3Zm-2.57,3v-3h2c-.32.51-.64,1-1,1.51a16.35,16.35,0,0,1-1,1.5ZM95.6,306v3H93.65l1.88-2.94v0l.06-.08Zm-4.52,0,.12.18.12.19.74,1.14c.32.51.64,1,1,1.53h-2v-3Zm2.44,2.77V305H95.6c0,.66.05.39-.51,1.27l-.13.21-.4.61c-.17.28-.34.54-.52.82l-.52.81Zm-2.44-3.28V305h2.08v3.69a7.53,7.53,0,0,1-.53-.78l-1.55-2.47Zm2.44-6.87c.18.22,1.59,2.47,1.84,2.85s.24.32.24,1.11H93.52v-4Zm-2.44,3.32a3.77,3.77,0,0,1,.49-.86l1.55-2.4c0-.07,0,0,0-.06v4H91.08v-.64Zm2.6-3.59H95.6v3a12.92,12.92,0,0,1-.72-1.09l-.12-.18-.37-.57-.24-.39a8,8,0,0,1-.47-.77Zm-2.6,3v-3H93c0,.14-1,1.6-1.18,1.87a12.44,12.44,0,0,1-.74,1.13Zm4.52-6.52v3H93.65l1.95-3Zm-4.52,0c.09.06.06.07.13.17l.36.57c.17.26.32.51.49.76l.48.76c.16.26.35.51.49.78h-2v-3Zm2.44,2.73V297c0-.51.06-.31.06-.51v-1.4c0-.12-.06,0-.06-.17v-1.33H95.6c0,1,.1.58-.5,1.52l-.52.82-1.06,1.62Zm-2.44-3.32v-.64h2.08v1.26c0,.19-.06.19-.06.38a6.69,6.69,0,0,0,0,1.42,6.61,6.61,0,0,1,0,.9,7.61,7.61,0,0,1-.53-.81l-.53-.81-.52-.82-.26-.41a1.24,1.24,0,0,1-.24-.47Zm2.44-5.09L94,290c.13.2,1.56,2.4,1.56,2.46v.69H93.52v-4Zm-2.44,3.28c0-.07,1.39-2.21,1.55-2.46l.53-.82v4H91.08v-.69Zm2.57-3.55H95.6v3l-1.95-3Zm-2.57,3v-3h2l-.48.76-.49.75-.48.76-.25.39-.19.3v0l0,.06Zm3.35-4.72v1.1c.6,0,.45.22.45-1.27.13,0,.08,0,.16,0,0-.88-.09-.69.49-1.55v0l.06,3H93.65l.72-1.12.06-.08Zm-3.35-1.84.06.07.36.58c.2.3.13.42.13,1,.08.05.06,0,.2,0v1.27h.42v-1.1c.16.2.65,1,.78,1.2h-2v-3Zm2.44,2.77v-1.3h.81L93.58,288l-.06.08Zm-1.17-1.3h.81v1.3l0-.06-.06-.08-.67-1.07a.49.49,0,0,1,0-.09Zm1.17-2.36s.16-.31.26-.31h.65v2.19h-.91v-1.88ZM92.25,286a2.8,2.8,0,0,1,.43-.58,6.52,6.52,0,0,1,.48-.55v1.47h-.91V286Zm2.79-.28v-1.57h.56c0,.86.09.61-.47,1.46l-.09.11Zm-4-.89v-.68h.55v1.57l-.28-.42a2.55,2.55,0,0,1-.27-.47Zm1.17.69v-1.37h.91c0,.5-.11.37-.53.94l-.38.43ZM95,281.86l.56.89v.92H95v-1.81Zm-.61,1.47v.34h-.3a1.09,1.09,0,0,0,.13-.17.69.69,0,0,1,.17-.17Zm-2.18-.68h.91v1h-.91v-1Zm-1.17.1.51-.83,0-.06v1.81h-.55v-.92Zm2.67.92h-.23v-1h.91c0,.46-.14.37-.48.83,0,.07-.11.19-.2.19Zm-.23-3.14a2.15,2.15,0,0,1,.23.27l.23.27.22.27.12.15c.16.17.11.14.11.68h-.91v-1.64Zm-1.27.44a5.64,5.64,0,0,1,.68-1.13c.07.05.23.18.23.28v2.05h-.91V281Zm2.79.38v-2.16h.56v3.05l-.14-.2-.14-.23a3,3,0,0,1-.28-.46Zm-4,.89v-3.05h.55v2.16a5.32,5.32,0,0,1-.4.67l-.1.16,0,.06Zm2.44-2.77.25.38.26.41c.34.54.4.49.4.95l-.45-.52c-.57-.72-.46-.39-.46-1.22Zm-.39,0s0,0,0,.07a.57.57,0,0,1,0,.13c-.11-.08-.07-.05,0-.2Zm-.88.92v-1.2c.28,0,.17,0,.33.2s.13.14.19.22a6.21,6.21,0,0,1-.52.78Zm1.4-1.2h.78v1.2l-.11-.13-.67-1.07Zm-.88,0H93a.14.14,0,1,1-.26,0Zm.75-.85h.91v.48h-.91v-.48ZM95,276.77h0v2h0v-2Zm-2.79,1.78v-.21h.91v.48c-.38,0-.66.06-.79-.09a.31.31,0,0,1-.12-.18Zm1.27-1.78h.91v1.09h-.91v-1.09Zm-1.27.58c0-.1.26-.35.34-.46s.07-.12.57-.12v1.09h-.91v-.51Zm0-.47v-.11h.1l-.09.11Zm1.26-1.07a9,9,0,0,1,.91-1.13v1.71h-.91v-.58Zm-.37.4v.18H93l.15-.18Zm-.54.18h-.36V274h.91v1.74c0,.08-.44.65-.55.65Zm.91-1.06V274h.91c0,.39,0,.27-.19.49a10.1,10.1,0,0,1-.72.84Zm0-3.45.71.86c.23.3.2.08.2.78h-.91v-1.64Zm-1.27-1.54.71.86c.08.11.2.16.2.34v2h-.91v-3.18Zm1.27,1.1v-1.75h.91v2.87a2,2,0,0,1-.24-.26,8.51,8.51,0,0,1-.67-.86Zm-1.27-1.54v-.21h.91V271a9.78,9.78,0,0,1-.91-1.13Zm1.27-2.74c0-.07.12-.2.2-.29l.71-.83v3.17h-.91v-2Zm-1.27,1.54a11,11,0,0,1,.91-1.13v1.64h-.91v-.51Zm1.3-3.35h.88c0,.46-.09.33-.43.78-.16.21-.32.39-.48.59a1.45,1.45,0,0,1,.06-.58,4.05,4.05,0,0,0,0-.79Zm-.45.17V266c0,.19.06.19.06.38,0,1.1.07.64-.43,1.29-.15.21-.32.39-.48.59v-2.91h.88a.47.47,0,0,0,0,.17Zm-.85-3.79a10.59,10.59,0,0,1,.69.81c.09.1.19.14.19.32v2.05h-.88v-3.18Zm1.3,1.57.33.37c.61.72.55.57.55,1.13,0,.18-.32.11-.78.11-.16,0-.1-.42-.1-.75v-.86Zm0-.48v-.72c.49,0,.39.12.39-.68h.23V261h.26v2.88a8.48,8.48,0,0,1-.88-1.1Zm-.62-.72h.2v.24a.78.78,0,0,1-.2-.24Zm-.68-.85V261h.26v.38h.26v.48a2.86,2.86,0,0,1-.52-.65Zm1.92-.82h.26v.14h-.26v-.14Zm-1.92,0h.26v.14h-.26v-.14Zm2-1.95h.2v.62h-.2v-.62Zm-2,0h.2v.62h-.2v-.62Zm0-5.23.2.2h-.2v-.21Zm0-.48v-.2h2.18v.89H92.84c-.12,0-.59-.63-.59-.69Zm.29-1.19h1.59v.24H92.54Z" transform="translate(-8.22 -236.83)"/></svg>